# xmcd
#
# Track frame offsets: 
#        150
#        28574
#        62883
#        88951
#        118678
#        147141
#        178120
#        206107
#        233027
#        266791
#        291217
#        311596
#
# Disc length: 4563 seconds
#
# Revision: 0
# Processed by: cddbd v1.5.2PL0 Copyright (c) Steve Scherf et al.
# Submitted via: ExactAudioCopy v0.99pb5
#
DISCID=b811d10c
DTITLE=Various Artist - Child Of Trance Vol. 4
DYEAR=2010
DGENRE=Trance
TTITLE0=Riffi - Intro (Morning Forest)
TTITLE1=On Wave - The Game (.:Maxi:. Trance Mix)
TTITLE2=EPICA feat. Boris Bredin - One Moment (Original Mix)
TTITLE3=Nitroz - Energy Dream
TTITLE4=Konstantion - Genesis
TTITLE5=Aleks. Picasso - Dispersing a Wave
TTITLE6=DJ Fam - Shining Star
TTITLE7=Poonyk and Oxide - It Lasts Eternity (Firelli Remix)
TTITLE8=Dave and Oliver - Aftertouch
TTITLE9=Shamlight Cafe - One Earth
TTITLE10=Patrick Kay - Symphony Of Time
TTITLE11=Celestial Empire - Transfer
EXTD=
EXTT0=
EXTT1=
EXTT2=
EXTT3=
EXTT4=
EXTT5=
EXTT6=
EXTT7=
EXTT8=
EXTT9=
EXTT10=
EXTT11=
PLAYORDER=
